<?xml version="1.0" encoding="UTF-8"?>
<svg version="1.1" xmlns="http://www.w3.org/2000/svg" width="500" height="500">
<path d="M0 0 C165 0 330 0 500 0 C500 165 500 330 500 500 C335 500 170 500 0 500 C0 335 0 170 0 0 Z " fill="#FEFEFE" transform="translate(0,0)"/>
<path d="M0 0 C14.29883173 10.61209592 24.5389337 26.37563547 28.2421875 43.83984375 C29.07838991 49.59609622 29.02989092 55.41741088 29.0546875 61.22265625 C29.06024658 62.32746338 29.06580566 63.43227051 29.0715332 64.57055664 C28.91133387 82.84012688 22.82463485 100.88080447 10.0546875 114.28515625 C-6.03865124 129.36359975 -24.13698803 134.66964912 -45.70703125 134.3125 C-58.99486085 133.75549192 -69.36768034 127.33542535 -79.2578125 119.03515625 C-79.33429031 126.11516346 -79.3865911 133.19506291 -79.42260742 140.27539062 C-79.43763256 142.68070456 -79.45805846 145.08599138 -79.48413086 147.49121094 C-79.5207905 150.96165689 -79.53760221 154.43173852 -79.55078125 157.90234375 C-79.56626511 158.96629364 -79.58174896 160.03024353 -79.59770203 161.12643433 C-79.59937877 168.6764934 -78.99947353 176.25355482 -74.4453125 182.53515625 C-69.45851735 185.95467292 -63.7410445 186.51394983 -57.8828125 187.16015625 C-56.77873047 187.28970703 -56.77873047 187.28970703 -55.65234375 187.421875 C-53.85482068 187.6319751 -52.05639908 187.83436392 -50.2578125 188.03515625 C-50.2578125 191.33515625 -50.2578125 194.63515625 -50.2578125 198.03515625 C-77.3178125 198.03515625 -104.3778125 198.03515625 -132.2578125 198.03515625 C-132.2578125 194.73515625 -132.2578125 191.43515625 -132.2578125 188.03515625 C-131.31679687 187.9371875 -130.37578125 187.83921875 -129.40625 187.73828125 C-120.0016393 186.83439817 -120.0016393 186.83439817 -112.2578125 182.03515625 C-106.28114803 173.31006376 -106.96368779 161.98460812 -106.99902344 151.79370117 C-106.9955188 150.52857193 -106.99201416 149.26344269 -106.98840332 147.9599762 C-106.97937674 144.52586491 -106.98278359 141.09187538 -106.98916149 137.65776229 C-106.99427576 134.03732621 -106.98951482 130.41689957 -106.98638916 126.79646301 C-106.98276377 120.71674762 -106.98750948 114.63708101 -106.99707031 108.55737305 C-107.00793738 101.56711504 -107.00443623 94.57697389 -106.9934175 87.58671874 C-106.98428606 81.5480657 -106.98308817 75.50944746 -106.98829484 69.47078973 C-106.99138449 65.880569 -106.99190831 62.29040282 -106.98522186 58.70018578 C-105.35246529 34.8721781 -105.35246529 34.8721781 -112.2578125 13.03515625 C-118.70178528 9.75458829 -125.10790317 9.3807352 -132.2578125 9.03515625 C-132.2578125 6.06515625 -132.2578125 3.09515625 -132.2578125 0.03515625 C-123.59815562 -2.84548703 -114.81513741 -4.52451256 -105.86010742 -6.18188477 C-103.30069919 -6.65597682 -100.74306796 -7.13888799 -98.18554688 -7.62304688 C-96.55478357 -7.92889811 -94.92392743 -8.23425482 -93.29296875 -8.5390625 C-92.53049332 -8.68276779 -91.76801788 -8.82647308 -90.98243713 -8.97453308 C-88.02752578 -9.51882734 -85.26969021 -9.96484375 -82.2578125 -9.96484375 C-82.2578125 -3.36484375 -82.2578125 3.23515625 -82.2578125 10.03515625 C-81.1440625 9.04515625 -80.0303125 8.05515625 -78.8828125 7.03515625 C-77.34368064 5.69889766 -75.80182685 4.36577024 -74.2578125 3.03515625 C-73.47535156 2.35195312 -72.69289062 1.66875 -71.88671875 0.96484375 C-50.7812756 -16.79749721 -22.50068675 -14.17979567 0 0 Z " fill="#030303" transform="translate(196.2578125,231.96484375)"/>
<path d="M0 0 C0.33 32.01 0.66 64.02 1 97 C4.96 93.04 8.92 89.08 13 85 C27.4787338 76.6854796 42.8732896 74.49025122 59.3125 78 C78.37123288 83.87259102 93.21698552 95.49770879 102.71484375 113.1953125 C108.51855817 125.20006163 110.58940085 135.93428395 110.5 149.25 C110.49856995 149.936315 110.49713989 150.62263 110.4956665 151.32974243 C110.44186293 161.74559662 109.65964019 170.52046745 105 180 C104.55398438 181.04285156 104.10796875 182.08570313 103.6484375 183.16015625 C95.60417021 200.93394237 81.05524189 212.91959937 63.125 219.9375 C45.81300312 225.29428592 25.88937128 222.76020876 9.5625 215.3125 C4.33538609 212.50788302 0.18295466 208.89784875 -4.0390625 204.7578125 C-5.80929457 202.7775039 -5.80929457 202.7775039 -8 203 C-9.38249511 204.86680868 -10.68203634 206.79549792 -11.9375 208.75 C-13.28599153 210.83701119 -14.63977986 212.92061396 -16 215 C-16.68255859 216.18335938 -16.68255859 216.18335938 -17.37890625 217.390625 C-19 219 -19 219 -22.10131836 219.10058594 C-23.0578833 219.06739258 -24.01444824 219.03419922 -25 219 C-25.00331015 218.10400463 -25.00662029 217.20800926 -25.01003075 216.28486252 C-25.09136973 194.44955177 -25.1834977 172.61430957 -25.28752708 150.7790947 C-25.33757738 140.2196064 -25.38402101 129.66012558 -25.421875 119.10058594 C-25.45489066 109.89330303 -25.49477435 100.6860794 -25.54279006 91.47886205 C-25.56796011 86.60699187 -25.58976908 81.73516053 -25.60334396 76.8632431 C-25.61625091 72.27007478 -25.63839689 67.67704033 -25.66738319 63.08394623 C-25.67639191 61.40549169 -25.68213336 59.72701563 -25.68421364 58.04853821 C-25.68381383 40.02575522 -25.68381383 40.02575522 -31 23 C-34.90924067 20.01476167 -38.48760367 19.39870236 -43.3125 18.8125 C-44.56675781 18.65394531 -45.82101563 18.49539062 -47.11328125 18.33203125 C-48.06589844 18.22246094 -49.01851562 18.11289063 -50 18 C-50 15.36 -50 12.72 -50 10 C-43.20126575 8.57305843 -36.40188928 7.14920918 -29.60205078 5.72753906 C-27.28744735 5.2432308 -24.97299356 4.75820685 -22.65869141 4.27246094 C-19.33795341 3.57560371 -16.01669109 2.88129671 -12.6953125 2.1875 C-11.65569366 1.96876221 -10.61607483 1.75002441 -9.54495239 1.5246582 C-8.58410736 1.32445068 -7.62326233 1.12424316 -6.63330078 0.91796875 C-5.78502716 0.74031982 -4.93675354 0.5626709 -4.06277466 0.37963867 C-2 0 -2 0 0 0 Z " fill="#020202" transform="translate(288,144)"/>
<path d="M0 0 C13.78699209 9.68529579 19.18125548 23.84100564 22.78515625 39.6796875 C22.97980469 40.45828125 23.17445313 41.236875 23.375 42.0390625 C26.38061488 61.38949738 23.05608357 84.55002775 11.5078125 100.6171875 C5.82946119 107.41575778 -1.09249797 113.96676577 -10.23925781 114.88232422 C-12.58810168 115.02463235 -14.92438889 115.09040318 -17.27734375 115.1171875 C-18.03329834 115.1275 -18.78925293 115.1378125 -19.56811523 115.1484375 C-29.68352407 114.9899888 -38.20144548 110.57586602 -45.38671875 103.55859375 C-54.48626398 93.14200908 -57.34601872 80.36300338 -57.41796875 66.87109375 C-57.42366882 66.02731674 -57.4293689 65.18353973 -57.4352417 64.31419373 C-57.44465934 62.52986897 -57.45121277 60.74552707 -57.45507812 58.96118164 C-57.4647017 56.28173794 -57.4957213 53.60308952 -57.52734375 50.92382812 C-57.63159596 34.19973751 -56.4154129 17.18260177 -44.46484375 4.2421875 C-31.94158925 -7.31773973 -14.55286941 -8.67525549 0 0 Z " fill="#FDFDFD" transform="translate(345.21484375,238.3203125)"/>
<path d="M0 0 C13.93934451 10.34961365 20.54501457 25.36688685 23.1171875 42.33984375 C25.23011205 61.07998007 23.87979832 83.02413718 12.7109375 98.921875 C5.5127425 107.39807851 -1.40788977 112.53090882 -12.4765625 114.421875 C-23.84183794 115.33050121 -32.59530006 113.39327928 -41.53125 106.17578125 C-49.68538067 98.82396464 -55.95591178 90.24853771 -56.62373352 78.92686462 C-56.63849983 77.52435204 -56.63849983 77.52435204 -56.65356445 76.09350586 C-56.66639969 75.02817123 -56.67923492 73.96283661 -56.69245911 72.86521912 C-56.69984604 71.717314 -56.70723297 70.56940887 -56.71484375 69.38671875 C-56.7229155 68.19768448 -56.73098724 67.00865021 -56.73930359 65.78358459 C-56.75313495 63.26434787 -56.76386134 60.74509249 -56.77172852 58.22583008 C-56.7888883 54.39823162 -56.83277884 50.57150893 -56.87695312 46.74414062 C-56.88708526 44.29167299 -56.89559973 41.83919804 -56.90234375 39.38671875 C-56.91985184 38.25298325 -56.93735992 37.11924774 -56.95539856 35.95115662 C-56.92313013 23.95735318 -53.09948561 13.56551934 -44.88671875 4.70703125 C-32.2140338 -7.01147507 -14.7402052 -9.39281214 0 0 Z " fill="#FDFDFD" transform="translate(172.4765625,238.578125)"/>
<path d="M0 0 C2.6908148 3.23266975 4.93884808 6.42777197 6.9609375 10.11328125 C7.7813855 11.59646851 7.7813855 11.59646851 8.6184082 13.10961914 C9.1980835 14.16656982 9.77775879 15.22352051 10.375 16.3125 C15.25440374 25.12326852 20.21515731 33.87594133 25.3125 42.5625 C29.36531037 49.48191859 33.41523022 56.40178512 37.375 63.375 C37.75052002 64.02927979 38.12604004 64.68355957 38.51293945 65.35766602 C41 69.76515312 41 69.76515312 41 72 C13.94 72 -13.12 72 -41 72 C-36.70149819 63.40299637 -32.45670733 55.09455492 -27.5625 46.875 C-26.34638911 44.81324689 -25.13160384 42.75071144 -23.91796875 40.6875 C-23.28552246 39.61242187 -22.65307617 38.53734375 -22.00146484 37.4296875 C-19.87049554 33.77808262 -17.76757715 30.11162988 -15.67578125 26.4375 C-15.31619827 25.80603058 -14.9566153 25.17456116 -14.58613586 24.5239563 C-13.16886616 22.03320084 -11.75269159 19.54183961 -10.34036255 17.04827881 C-9.36152613 15.32022455 -8.38002525 13.5936804 -7.3984375 11.8671875 C-6.55804932 10.38387939 -6.55804932 10.38387939 -5.70068359 8.87060547 C-3.90054601 5.83213034 -1.98317072 2.92139844 0 0 Z " fill="#018001" transform="translate(235,58)"/>
<path d="M0 0 C4.00521387 2.88747977 7.46370991 6.48991981 9.6875 10.9375 C9.83727039 13.18405587 9.90900174 15.43613768 9.9375 17.6875 C9.96328125 18.89921875 9.9890625 20.1109375 10.015625 21.359375 C9.58117747 26.09692183 8.20111896 29.32949055 4.93359375 32.80078125 C4.33675781 33.27902344 3.73992187 33.75726563 3.125 34.25 C2.22587891 34.98669922 2.22587891 34.98669922 1.30859375 35.73828125 C-3.50894841 39.30210159 -9.59674443 38.6327498 -15.3125 37.9375 C-20.18252778 35.80352852 -24.30476049 31.91752368 -26.68359375 27.1171875 C-28.33186435 21.40454778 -28.42062354 15.12910007 -26.46484375 9.49609375 C-20.76374676 -0.68857781 -10.84749207 -3.47938425 0 0 Z " fill="#F8F8F8" transform="translate(427.3125,392.0625)"/>
<path d="M0 0 C4.00521387 2.88747977 7.46370991 6.48991981 9.6875 10.9375 C9.83727039 13.18405587 9.90900174 15.43613768 9.9375 17.6875 C9.96328125 18.89921875 9.9890625 20.1109375 10.015625 21.359375 C9.58117747 26.09692183 8.20111896 29.32949055 4.93359375 32.80078125 C4.33675781 33.27902344 3.73992187 33.75726563 3.125 34.25 C2.22587891 34.98669922 2.22587891 34.98669922 1.30859375 35.73828125 C-3.50894841 39.30210159 -9.59674443 38.6327498 -15.3125 37.9375 C-20.18252778 35.80352852 -24.30476049 31.91752368 -26.68359375 27.1171875 C-28.33186435 21.40454778 -28.42062354 15.12910007 -26.46484375 9.49609375 C-20.76374676 -0.68857781 -10.84749207 -3.47938425 0 0 Z M-21.625 8.4375 C-24.68192517 12.96627802 -24.87626462 17.53997576 -24.3125 22.9375 C-22.30953332 28.61257225 -18.69899821 32.24425089 -13.3125 34.9375 C-7.93468993 35.60561897 -3.38882764 35.3098427 1.1796875 32.25 C4.84351219 29.060764 6.39644955 25.97485318 7.06640625 21.28515625 C7.3343067 14.9851748 6.70309044 10.85659828 2.6875 5.9375 C-5.93506165 -0.47219185 -14.32550763 0.5461569 -21.625 8.4375 Z " fill="#222222" transform="translate(427.3125,392.0625)"/>
<path d="M0 0 C11 0 11 0 15 2 C15.875 5.4375 15.875 5.4375 16 9 C15.01 10.485 15.01 10.485 14 12 C14.66 12.66 15.32 13.32 16 14 C16.1953125 16.1640625 16.1953125 16.1640625 16.125 18.625 C16.10695313 19.44226563 16.08890625 20.25953125 16.0703125 21.1015625 C16.04710937 21.72804688 16.02390625 22.35453125 16 23 C14.68 23 13.36 23 12 23 C11.67 20.36 11.34 17.72 11 15 C8.69 14.67 6.38 14.34 4 14 C4 16.97 4 19.94 4 23 C2.68 23 1.36 23 0 23 C0 15.41 0 7.82 0 0 Z " fill="#222222" transform="translate(411,399)"/>
<path d="M0 0 C2.31 0 4.62 0 7 0 C7.625 1.875 7.625 1.875 8 4 C6 6 6 6 2.875 6.125 C1.451875 6.063125 1.451875 6.063125 0 6 C0 4.02 0 2.04 0 0 Z " fill="#FAFAFA" transform="translate(415,403)"/>
<path d="M0 0 C0.80050781 0.22042969 1.60101563 0.44085938 2.42578125 0.66796875 C3.23402344 0.88066406 4.04226563 1.09335937 4.875 1.3125 C5.79732422 1.58126953 5.79732422 1.58126953 6.73828125 1.85546875 C6.73828125 2.18546875 6.73828125 2.51546875 6.73828125 2.85546875 C4.09828125 2.85546875 1.45828125 2.85546875 -1.26171875 2.85546875 C-1.26171875 10.11546875 -1.26171875 17.37546875 -1.26171875 24.85546875 C-1.59171875 24.85546875 -1.92171875 24.85546875 -2.26171875 24.85546875 C-2.59171875 17.92546875 -2.92171875 10.99546875 -3.26171875 3.85546875 C-4.58171875 4.84546875 -5.90171875 5.83546875 -7.26171875 6.85546875 C-4.07193181 -0.2602098 -4.07193181 -0.2602098 0 0 Z " fill="#DFDFDF" transform="translate(412.26171875,396.14453125)"/>
</svg>
